<?xml version="1.0" encoding="UTF-8"?>
<svg id="Ebene_1" data-name="Ebene 1" xmlns="http://www.w3.org/2000/svg" viewBox="0 0 28.01 24">
  <defs>
    <style>
      .cls-1 {
        fill: #fff;
      }

      .cls-2 {
        fill: none;
        stroke: #fff;
        stroke-miterlimit: 10;
      }
    </style>
  </defs>
  <g>
    <path class="cls-1" d="m20.7,13.47c1.01,0,1.52.54,1.52,1.62v1.58c0,1.08-.51,1.62-1.52,1.62h-1.39v3.12h-1.72v-7.94h3.1Zm-.2,3.4v-1.98c0-.06-.02-.12-.07-.17s-.1-.07-.17-.07h-.96v2.47h.96c.06,0,.12-.02.17-.07.04-.05.07-.11.07-.17Z"/>
    <path class="cls-1" d="m26.27,15.42h1.64v6.44c0,1.08-.51,1.62-1.52,1.62h-1.23c-1.01,0-1.52-.54-1.52-1.62v-.2h1.59v.39c0,.07.02.12.07.17s.1.07.17.07h.56c.06,0,.12-.02.17-.07s.07-.11.07-.17v-1.21c-.24.2-.58.29-1.01.29h-.26c-1.01,0-1.52-.54-1.52-1.62v-4.1h1.64v4.3c0,.07.02.12.07.17s.1.07.17.07h.68c.06,0,.12-.02.17-.07s.07-.11.07-.17v-4.3Z"/>
  </g>
  <g>
    <g>
      <polygon class="cls-1" points="7.69 16.2 8.44 15.45 6.17 13.18 8.44 10.92 7.69 10.17 4.67 13.18 7.69 16.2"/>
      <polygon class="cls-1" points="12.74 16.2 15.76 13.18 12.74 10.17 12 10.92 14.26 13.18 12 15.45 12.74 16.2"/>
    </g>
    <g>
      <path class="cls-2" d="m13.96,20.97H1.49c-.44,0-.8-.36-.8-.8V5.68c0-.18.06-.36.18-.51l2.37-2.9c.15-.19.38-.29.62-.29h12.6c.23,0,.46.1.61.28l2.49,2.91c.12.14.19.33.19.52v5.49"/>
      <line class="cls-2" x1=".69" y1="5.67" x2="19.74" y2="5.67"/>
    </g>
  </g>
</svg>