<?xml version="1.0" encoding="UTF-8"?>
<svg id="Ebene_1" data-name="Ebene 1" xmlns="http://www.w3.org/2000/svg" viewBox="0 0 27.91 24">
  <defs>
    <style>
      .cls-1 {
        fill: #fff;
      }

      .cls-2 {
        fill: none;
        stroke: #fff;
        stroke-miterlimit: 10;
      }
    </style>
  </defs>
  <g>
    <polygon class="cls-1" points="10.51 16.31 11.25 15.55 8.99 13.29 11.25 11.03 10.51 10.27 7.49 13.29 10.51 16.31"/>
    <polygon class="cls-1" points="15.56 16.31 18.58 13.29 15.56 10.27 14.81 11.03 17.08 13.29 14.81 15.55 15.56 16.31"/>
  </g>
  <g>
    <path class="cls-2" d="m16.78,21.08H4.31c-.44,0-.8-.36-.8-.8V5.79c0-.18.06-.36.18-.51l2.37-2.9c.15-.19.38-.29.62-.29h12.6c.23,0,.46.1.61.28l2.49,2.91c.12.14.19.33.19.52v5.49"/>
    <line class="cls-2" x1="3.51" y1="5.78" x2="22.56" y2="5.78"/>
  </g>
  <path class="cls-1" d="m21.67,13.63h1.72v6.44c0,1.08-.51,1.62-1.52,1.62h-1.42c-1.01,0-1.52-.54-1.52-1.62v-.99h1.63v1.19c0,.07.02.12.07.17.04.05.1.07.17.07h.65c.07,0,.12-.02.17-.07.04-.05.07-.11.07-.17v-6.64Z"/>
</svg>