<?xml version="1.0" encoding="UTF-8"?>
<svg id="Ebene_1" data-name="Ebene 1" xmlns="http://www.w3.org/2000/svg" viewBox="0 0 28.08 22.57">
  <defs>
    <style>
      .cls-1 {
        fill: #fff;
      }

      .cls-2 {
        fill: none;
        stroke: #fff;
        stroke-miterlimit: 10;
      }
    </style>
  </defs>
  <g>
    <path class="cls-2" d="m24.09,5.87v14.48c0,.44-.36.8-.8.8H5.84c-.44,0-.8-.36-.8-.8V5.86c0-.18.06-.36.18-.51l2.37-2.9c.15-.19.38-.29.62-.29h12.6c.23,0,.46.1.61.28l2.49,2.91c.12.14.19.33.19.52Z"/>
    <line class="cls-2" x1="5.04" y1="5.85" x2="24.09" y2="5.85"/>
  </g>
  <g>
    <rect class="cls-2" x="8.67" y="9.05" width="12.05" height="8.9" rx=".74" ry=".74"/>
    <rect class="cls-1" x="8.82" y="9.13" width="11.74" height="1.82"/>
    <polyline class="cls-2" points="11.69 12.41 13.56 14.28 11.69 16.15"/>
    <line class="cls-2" x1="14.52" y1="16.08" x2="17.57" y2="16.08"/>
  </g>
</svg>