<?xml version="1.0" encoding="UTF-8"?>
<svg id="Ebene_1" data-name="Ebene 1" xmlns="http://www.w3.org/2000/svg" viewBox="0 0 27.82 24">
  <defs>
    <style>
      .cls-1 {
        fill: #fff;
      }

      .cls-2 {
        fill: none;
        stroke: #fff;
        stroke-miterlimit: 10;
      }
    </style>
  </defs>
  <g>
    <path class="cls-1" d="m19.42,13.84h1.72v6.44c0,1.08-.51,1.62-1.52,1.62h-1.42c-1.01,0-1.52-.54-1.52-1.62v-.99h1.63v1.19c0,.07.02.12.07.17.04.05.1.07.17.07h.65c.07,0,.12-.02.17-.07.04-.05.07-.11.07-.17v-6.64Z"/>
    <path class="cls-1" d="m27.41,15.92h-1.63v-.63c0-.07-.02-.12-.07-.17s-.1-.07-.17-.07h-.68c-.06,0-.12.02-.17.07s-.07.11-.07.17v1.41c0,.07.02.12.07.17s.1.07.17.07h1.1c1.01.02,1.52.56,1.52,1.62v1.71c0,1.08-.51,1.62-1.52,1.62h-1.45c-1.01,0-1.52-.54-1.52-1.62v-.82h1.63v.88c0,.07.02.12.07.17s.1.07.17.07h.76c.07,0,.12-.02.17-.07s.07-.11.07-.17v-1.56c0-.07-.02-.12-.07-.17s-.1-.07-.17-.07h-1.1c-1.01,0-1.52-.54-1.52-1.62v-1.58c0-1.08.51-1.62,1.52-1.62h1.36c1.01,0,1.52.54,1.52,1.62v.59Z"/>
  </g>
  <g>
    <polygon class="cls-1" points="7.79 16.41 8.54 15.65 6.28 13.39 8.54 11.13 7.79 10.37 4.77 13.39 7.79 16.41"/>
    <polygon class="cls-1" points="12.84 16.41 15.86 13.39 12.84 10.37 12.1 11.13 14.36 13.39 12.1 15.65 12.84 16.41"/>
  </g>
  <g>
    <path class="cls-2" d="m14.06,21.18H1.59c-.44,0-.8-.36-.8-.8V5.89c0-.18.06-.36.18-.51l2.37-2.9c.15-.19.38-.29.62-.29h12.6c.23,0,.46.1.61.28l2.49,2.91c.12.14.19.33.19.52v5.49"/>
    <line class="cls-2" x1=".79" y1="5.88" x2="19.84" y2="5.88"/>
  </g>
</svg>